<?xml version="1.0" encoding="utf-8"?>
<!-- Generator: Adobe Illustrator 20.0.0, SVG Export Plug-In . SVG Version: 6.00 Build 0)  -->
<svg version="1.1" id="Layer_1" xmlns="http://www.w3.org/2000/svg" xmlns:xlink="http://www.w3.org/1999/xlink" x="0px" y="0px"
	 viewBox="0 0 211.9 38.6" style="enable-background:new 0 0 211.9 38.6;" xml:space="preserve">
<style type="text/css">
	.st0{fill:#3FAE2A;}
	.st1{fill:none;}
	.st2{fill:#263746;}
	.st3{fill:#FFFFFF;}
</style>
<g>
	<g>
		<g>
			<g>
				<path class="st0" d="M55.7,2.6c-0.1-0.2-0.2-0.3-0.5-0.3h-0.3c-0.3,0-0.4,0.1-0.5,0.3l-8.9,19.3c-0.2,0.4,0.1,0.7,0.5,0.7h2.5
					c0.5,0,0.7-0.3,0.8-0.6l1.4-3.1h8.6l1.4,3.1c0.2,0.4,0.4,0.6,0.8,0.6H64c0.4,0,0.7-0.4,0.5-0.7L55.7,2.6z M52.1,15.8l2.8-6.3H55
					l2.9,6.3H52.1z"/>
			</g>
			<g>
				<path class="st0" d="M83,2.6h-2.6c-0.3,0-0.5,0.3-0.5,0.5V15l0,0l-12-12.7h-0.7c-0.3,0-0.5,0.2-0.5,0.5v19.3
					c0,0.3,0.3,0.5,0.5,0.5h2.6c0.3,0,0.5-0.3,0.5-0.5V9.8l0,0l12,13.2H83c0.3,0,0.5-0.2,0.5-0.5V3.1C83.6,2.9,83.3,2.6,83,2.6z"/>
			</g>
			<g>
				<path class="st0" d="M95.9,2.6c-0.1-0.2-0.2-0.3-0.5-0.3h-0.3c-0.3,0-0.4,0.1-0.5,0.3l-8.9,19.3c-0.2,0.4,0.1,0.7,0.5,0.7h2.5
					c0.5,0,0.7-0.3,0.8-0.6l1.4-3h8.6l1.4,3.1c0.2,0.4,0.4,0.6,0.8,0.6h2.5c0.4,0,0.7-0.4,0.5-0.7L95.9,2.6z M92.3,15.8l2.8-6.3h0.1
					l2.9,6.3H92.3z"/>
			</g>
			<g>
				<path class="st0" d="M120.4,17.6c-0.2-0.2-0.5-0.2-0.7,0c-1.2,1-2.7,1.6-4.4,1.6c-3.7,0-6.4-3-6.4-6.6s2.7-6.7,6.4-6.7
					c1.6,0,3.2,0.6,4.4,1.7c0.2,0.2,0.5,0.2,0.7,0l1.7-1.8c0.2-0.2,0.2-0.6,0-0.8c-1.9-1.7-4-2.7-6.9-2.7c-5.7,0-10.3,4.6-10.3,10.3
					s4.6,10.3,10.3,10.3c2.6,0,5-0.9,7-2.8c0.2-0.2,0.3-0.6,0-0.8L120.4,17.6z"/>
			</g>
			<g>
				<path class="st0" d="M133.9,2.3c-5.7,0-10.3,4.6-10.3,10.3s4.6,10.3,10.3,10.3c5.7,0,10.3-4.6,10.3-10.3S139.7,2.3,133.9,2.3z
					 M133.9,19.2c-3.6,0-6.6-3-6.6-6.6s3-6.6,6.6-6.6s6.6,3,6.6,6.6C140.5,16.3,137.5,19.2,133.9,19.2z"/>
			</g>
			<g>
				<path class="st0" d="M163.8,2.6h-2.6c-0.3,0-0.5,0.3-0.5,0.5V15l0,0L148.6,2.3h-0.7c-0.3,0-0.5,0.2-0.5,0.5v19.3
					c0,0.3,0.3,0.5,0.5,0.5h2.6c0.3,0,0.5-0.3,0.5-0.5V9.8l0,0L163,23h0.7c0.3,0,0.5-0.2,0.5-0.5V3.1C164.3,2.9,164.1,2.6,163.8,2.6
					z"/>
			</g>
			<g>
				<path class="st0" d="M175.3,2.6h-6.8c-0.3,0-0.5,0.3-0.5,0.5v19c0,0.3,0.2,0.5,0.5,0.5h6.8c5.5,0,10.1-4.5,10.1-10.1
					C185.3,7.1,180.8,2.6,175.3,2.6z M174.9,19.2h-3.3V6.1h3.3c3.7,0,6.4,2.8,6.4,6.5C181.4,16.4,178.6,19.2,174.9,19.2z"/>
			</g>
			<g>
				<path class="st0" d="M204.5,21.9l-8.8-19.3c-0.1-0.2-0.2-0.3-0.5-0.3h-0.3c-0.3,0-0.4,0.1-0.5,0.3l-8.9,19.3
					c-0.2,0.4,0.1,0.7,0.5,0.7h2.5c0.5,0,0.7-0.3,0.8-0.6l1.4-3.1h8.6l1.4,3.1c0.2,0.4,0.4,0.6,0.8,0.6h2.5
					C204.4,22.7,204.7,22.3,204.5,21.9z M192.1,15.8l2.8-6.3h0.1l2.9,6.3H192.1z"/>
			</g>
			<g>
				<g>
					<path class="st1" d="M208.8,26c0-0.1-0.1-0.2-0.2-0.2h-0.4v0.5h0.4C208.7,26.2,208.8,26.1,208.8,26z"/>
				</g>
				<g>
					<path class="st1" d="M208.4,27.6c0.8,0,1.4-0.6,1.4-1.4s-0.6-1.4-1.4-1.4c-0.8,0-1.4,0.6-1.4,1.4S207.7,27.6,208.4,27.6z
						 M207.8,25.5C207.8,25.5,207.8,25.4,207.8,25.5l0.8-0.1c0.3,0,0.6,0.2,0.6,0.6c0,0.3-0.2,0.5-0.4,0.5c0.1,0.2,0.2,0.4,0.2,0.5
						s0,0.1-0.1,0.1h-0.2c0,0-0.1,0-0.1-0.1l-0.2-0.6h-0.3V27c0,0,0,0.1-0.1,0.1h-0.1c-0.1,0-0.1,0-0.1-0.1V25.5z"/>
				</g>
				<g>
					<path class="st0" d="M207.9,27.1h0.2c0.1,0,0.1,0,0.1-0.1v-0.5h0.3l0.2,0.6c0,0,0,0.1,0.1,0.1h0.2c0.1,0,0.1-0.1,0.1-0.1
						c-0.1-0.2-0.2-0.3-0.2-0.5c0.1-0.1,0.4-0.2,0.4-0.5c0-0.4-0.3-0.6-0.6-0.6h-0.8c-0.1,0-0.1,0-0.1,0.1L207.9,27.1
						C207.8,27.1,207.8,27.1,207.9,27.1z M208.1,25.7h0.4c0.1,0,0.2,0.1,0.2,0.2s-0.1,0.2-0.2,0.2h-0.4V25.7z"/>
				</g>
				<g>
					<path class="st0" d="M208.4,28c0.9,0,1.7-0.8,1.7-1.7s-0.8-1.7-1.7-1.7s-1.7,0.8-1.7,1.7S207.5,28,208.4,28z M208.4,24.9
						c0.8,0,1.4,0.6,1.4,1.4s-0.6,1.4-1.4,1.4c-0.8,0-1.4-0.6-1.4-1.4S207.7,24.9,208.4,24.9z"/>
				</g>
			</g>
		</g>
		<g>
			<path class="st2" d="M48,28.1c1,0,1.8,0.2,2.3,0.6s0.8,1,0.8,1.7c0,0.4-0.1,0.8-0.2,1.1c-0.1,0.3-0.4,0.5-0.6,0.7
				c-0.3,0.2-0.6,0.3-1,0.4c-0.4,0.1-0.9,0.1-1.4,0.1h-0.8v2.7h-1v-7.1c0.3-0.1,0.6-0.1,1-0.1C47.4,28.1,47.7,28.1,48,28.1z M48,29
				c-0.4,0-0.8,0-1,0v2.8h0.8c0.3,0,0.7,0,0.9-0.1c0.3,0,0.5-0.1,0.7-0.2s0.3-0.3,0.4-0.4c0.1-0.2,0.2-0.4,0.2-0.7
				c0-0.3-0.1-0.5-0.2-0.7c-0.1-0.2-0.3-0.3-0.4-0.4c-0.2-0.1-0.4-0.2-0.6-0.2C48.6,29,48.3,29,48,29z"/>
			<path class="st2" d="M57.2,32.7c0,0.4-0.1,0.8-0.2,1.2c-0.1,0.3-0.3,0.6-0.5,0.9c-0.2,0.2-0.5,0.4-0.8,0.6
				c-0.3,0.1-0.7,0.2-1,0.2s-0.7-0.1-1-0.2c-0.3-0.1-0.6-0.3-0.8-0.6c-0.2-0.2-0.4-0.5-0.5-0.9c-0.1-0.3-0.2-0.7-0.2-1.2
				c0-0.4,0.1-0.8,0.2-1.2c0.1-0.3,0.3-0.6,0.5-0.9c0.2-0.2,0.5-0.4,0.8-0.6c0.3-0.1,0.7-0.2,1-0.2s0.7,0.1,1,0.2s0.6,0.3,0.8,0.6
				c0.2,0.2,0.4,0.5,0.5,0.9C57.1,31.9,57.2,32.3,57.2,32.7z M56.2,32.7c0-0.6-0.1-1.1-0.4-1.4c-0.3-0.4-0.6-0.5-1.1-0.5
				s-0.8,0.2-1.1,0.5c-0.3,0.4-0.4,0.8-0.4,1.4c0,0.6,0.1,1.1,0.4,1.4c0.3,0.4,0.6,0.5,1.1,0.5s0.8-0.2,1.1-0.5
				C56,33.8,56.2,33.3,56.2,32.7z"/>
			<path class="st2" d="M63.1,35.4c-0.2-0.5-0.4-1.1-0.6-1.7c-0.2-0.6-0.4-1.3-0.6-2c-0.2,0.7-0.4,1.4-0.6,2
				c-0.2,0.6-0.4,1.2-0.6,1.7h-0.8c-0.3-0.7-0.6-1.5-0.9-2.4c-0.3-0.9-0.6-1.9-0.9-3h1c0.1,0.3,0.2,0.7,0.2,1.1
				c0.1,0.4,0.2,0.8,0.3,1.1c0.1,0.4,0.2,0.7,0.3,1.1c0.1,0.4,0.2,0.7,0.3,0.9c0.1-0.3,0.2-0.7,0.3-1c0.1-0.4,0.2-0.7,0.3-1.1
				c0.1-0.4,0.2-0.7,0.3-1.1s0.2-0.7,0.2-1h0.8c0.1,0.3,0.1,0.6,0.2,1c0.1,0.4,0.2,0.7,0.3,1.1c0.1,0.4,0.2,0.7,0.3,1.1
				s0.2,0.7,0.3,1c0.1-0.3,0.2-0.6,0.3-0.9s0.2-0.7,0.3-1.1c0.1-0.4,0.2-0.8,0.3-1.1c0.1-0.4,0.2-0.7,0.2-1.1h1
				c-0.3,1.1-0.6,2-0.9,3c-0.3,0.9-0.6,1.7-0.9,2.4C63.5,35.4,63.1,35.4,63.1,35.4z"/>
			<path class="st2" d="M66.5,32.7c0-0.5,0.1-0.9,0.2-1.3s0.3-0.7,0.6-0.9c0.2-0.2,0.5-0.4,0.8-0.5s0.6-0.2,0.9-0.2
				c0.7,0,1.3,0.2,1.7,0.7c0.4,0.5,0.6,1.1,0.6,2.1c0,0,0,0.1,0,0.2c0,0.1,0,0.1,0,0.2h-3.7c0,0.6,0.2,1,0.5,1.3s0.7,0.4,1.3,0.4
				c0.3,0,0.6,0,0.9-0.1c0.2-0.1,0.4-0.1,0.5-0.2l0.1,0.8c-0.1,0.1-0.3,0.1-0.6,0.2c-0.3,0.1-0.6,0.1-1,0.1c-0.5,0-0.9-0.1-1.2-0.2
				c-0.3-0.1-0.6-0.3-0.8-0.6c-0.2-0.2-0.4-0.5-0.5-0.9C66.6,33.5,66.5,33.1,66.5,32.7z M70.2,32.2c0-0.4-0.1-0.8-0.3-1.1
				c-0.2-0.3-0.5-0.4-0.9-0.4c-0.2,0-0.4,0-0.6,0.1S68.1,31,68,31.1c-0.1,0.1-0.2,0.3-0.3,0.5c-0.1,0.2-0.1,0.4-0.1,0.6H70.2z"/>
			<path class="st2" d="M74.7,29.9c0.1,0,0.2,0,0.3,0c0.1,0,0.2,0,0.3,0c0.1,0,0.2,0,0.3,0.1c0.1,0,0.2,0,0.2,0l-0.2,0.8
				c-0.1,0-0.2-0.1-0.4-0.1c-0.2,0-0.4-0.1-0.7-0.1c-0.2,0-0.4,0-0.5,0.1c-0.2,0-0.3,0.1-0.3,0.1v4.5h-1v-5.2
				c0.2-0.1,0.5-0.2,0.9-0.2C73.9,29.9,74.3,29.9,74.7,29.9z"/>
			<path class="st2" d="M76.5,32.7c0-0.5,0.1-0.9,0.2-1.3s0.3-0.7,0.6-0.9c0.2-0.2,0.5-0.4,0.8-0.5s0.6-0.2,0.9-0.2
				c0.7,0,1.3,0.2,1.7,0.7c0.4,0.5,0.6,1.1,0.6,2.1c0,0,0,0.1,0,0.2c0,0.1,0,0.1,0,0.2h-3.7c0,0.6,0.2,1,0.5,1.3s0.7,0.4,1.3,0.4
				c0.3,0,0.6,0,0.9-0.1c0.2-0.1,0.4-0.1,0.5-0.2l0.1,0.8c-0.1,0.1-0.3,0.1-0.6,0.2c-0.3,0.1-0.6,0.1-1,0.1c-0.5,0-0.9-0.1-1.2-0.2
				c-0.3-0.1-0.6-0.3-0.8-0.6c-0.2-0.2-0.4-0.5-0.5-0.9C76.6,33.5,76.5,33.1,76.5,32.7z M80.2,32.2c0-0.4-0.1-0.8-0.3-1.1
				c-0.2-0.3-0.5-0.4-0.9-0.4c-0.2,0-0.4,0-0.6,0.1S78.1,31,78,31.1c-0.1,0.1-0.2,0.3-0.3,0.5c-0.1,0.2-0.1,0.4-0.1,0.6H80.2z"/>
			<path class="st2" d="M86.2,27.5l1-0.2v7.9c-0.2,0.1-0.5,0.1-0.9,0.2c-0.3,0.1-0.7,0.1-1.2,0.1c-0.4,0-0.8-0.1-1.1-0.2
				c-0.3-0.1-0.6-0.3-0.9-0.6c-0.2-0.2-0.4-0.5-0.5-0.9c-0.1-0.3-0.2-0.7-0.2-1.2c0-0.4,0.1-0.8,0.2-1.1c0.1-0.3,0.3-0.6,0.5-0.9
				c0.2-0.2,0.5-0.4,0.8-0.6c0.3-0.1,0.6-0.2,1-0.2c0.3,0,0.6,0,0.8,0.1c0.2,0.1,0.4,0.2,0.5,0.2C86.2,30.1,86.2,27.5,86.2,27.5z
				 M86.2,31.1c-0.1-0.1-0.3-0.2-0.5-0.3c-0.2-0.1-0.5-0.1-0.7-0.1c-0.3,0-0.5,0-0.7,0.2c-0.2,0.1-0.4,0.2-0.5,0.4
				c-0.1,0.2-0.2,0.4-0.3,0.6c-0.1,0.2-0.1,0.5-0.1,0.8c0,0.6,0.2,1.1,0.5,1.5c0.3,0.3,0.7,0.5,1.2,0.5c0.3,0,0.5,0,0.7,0
				s0.3-0.1,0.4-0.1V31.1z"/>
			<path class="st2" d="M92.4,30.2c0.1-0.1,0.3-0.2,0.5-0.2c0.2-0.1,0.5-0.1,0.8-0.1c0.4,0,0.7,0.1,1,0.2s0.6,0.3,0.8,0.6
				c0.2,0.2,0.4,0.5,0.5,0.9c0.1,0.3,0.2,0.7,0.2,1.1s-0.1,0.8-0.2,1.2c-0.1,0.3-0.3,0.6-0.5,0.9c-0.2,0.2-0.5,0.4-0.9,0.6
				c-0.3,0.1-0.7,0.2-1.1,0.2s-0.8,0-1.2-0.1c-0.3-0.1-0.6-0.1-0.9-0.2v-7.7l1-0.2C92.4,27.4,92.4,30.2,92.4,30.2z M92.4,34.5
				c0.1,0,0.2,0.1,0.4,0.1c0.2,0,0.4,0,0.7,0c0.5,0,0.9-0.2,1.2-0.5c0.3-0.3,0.5-0.8,0.5-1.5c0-0.3,0-0.5-0.1-0.8
				c-0.1-0.2-0.1-0.5-0.3-0.6c-0.1-0.2-0.3-0.3-0.5-0.4s-0.4-0.2-0.7-0.2c-0.3,0-0.5,0-0.7,0.1s-0.4,0.2-0.5,0.3V34.5z"/>
			<path class="st2" d="M97,36.4c0.1,0,0.2,0.1,0.3,0.1s0.2,0,0.4,0c0.4,0,0.7-0.1,0.9-0.3c0.2-0.2,0.4-0.4,0.6-0.8
				c-0.4-0.8-0.8-1.7-1.2-2.6c-0.4-0.9-0.7-1.9-0.9-2.8h1c0.1,0.3,0.2,0.6,0.3,1c0.1,0.4,0.2,0.7,0.4,1.1c0.1,0.4,0.3,0.8,0.4,1.1
				c0.2,0.4,0.3,0.7,0.5,1.1c0.3-0.7,0.5-1.4,0.7-2.2c0.2-0.7,0.4-1.4,0.6-2.2h1c-0.2,1-0.5,2-0.8,2.9c-0.3,0.9-0.6,1.8-1,2.6
				c-0.1,0.3-0.3,0.6-0.4,0.8s-0.3,0.4-0.5,0.6c-0.2,0.1-0.4,0.3-0.6,0.3c-0.2,0.1-0.5,0.1-0.8,0.1c-0.1,0-0.2,0-0.2,0
				c-0.1,0-0.2,0-0.2,0c-0.1,0-0.2,0-0.2-0.1s-0.1,0-0.1-0.1L97,36.4z"/>
			<path class="st2" d="M108.7,35.5c-0.5,0-1-0.1-1.5-0.2c-0.4-0.2-0.8-0.4-1.1-0.7c-0.3-0.3-0.5-0.7-0.7-1.2s-0.2-1-0.2-1.6
				c0-0.6,0.1-1.1,0.3-1.6c0.2-0.5,0.4-0.9,0.8-1.2c0.3-0.3,0.7-0.6,1.1-0.7c0.4-0.2,0.9-0.2,1.4-0.2c0.3,0,0.6,0,0.8,0.1
				c0.2,0,0.5,0.1,0.6,0.2c0.2,0.1,0.3,0.1,0.4,0.2s0.2,0.1,0.2,0.1l-0.4,1.1c-0.2-0.1-0.4-0.2-0.7-0.3c-0.3-0.1-0.6-0.1-1-0.1
				c-0.3,0-0.6,0.1-0.9,0.2s-0.5,0.3-0.7,0.5s-0.4,0.5-0.5,0.8s-0.2,0.7-0.2,1.1c0,0.4,0,0.7,0.1,1c0.1,0.3,0.2,0.6,0.4,0.8
				c0.2,0.2,0.4,0.4,0.7,0.5c0.3,0.1,0.6,0.2,1,0.2c0.5,0,0.8,0,1.1-0.1c0.3-0.1,0.5-0.2,0.7-0.3l0.5,0.9c-0.1,0.1-0.2,0.1-0.3,0.2
				c-0.1,0.1-0.3,0.1-0.5,0.2c-0.2,0.1-0.4,0.1-0.7,0.1C109.2,35.5,108.9,35.5,108.7,35.5z"/>
			<path class="st2" d="M117.1,32.7c0,0.4-0.1,0.8-0.2,1.2s-0.3,0.7-0.5,0.9s-0.5,0.4-0.8,0.6c-0.3,0.1-0.7,0.2-1.1,0.2
				s-0.7-0.1-1.1-0.2c-0.3-0.1-0.6-0.3-0.8-0.6c-0.2-0.2-0.4-0.6-0.5-0.9c-0.1-0.4-0.2-0.7-0.2-1.2c0-0.4,0.1-0.8,0.2-1.2
				c0.1-0.3,0.3-0.6,0.5-0.9c0.2-0.2,0.5-0.4,0.8-0.6c0.3-0.1,0.7-0.2,1-0.2c0.4,0,0.7,0.1,1.1,0.2c0.3,0.1,0.6,0.3,0.8,0.6
				c0.2,0.2,0.4,0.5,0.5,0.9S117.1,32.2,117.1,32.7z M115.8,32.7c0-0.5-0.1-1-0.3-1.3c-0.2-0.3-0.6-0.5-1-0.5s-0.7,0.2-1,0.5
				c-0.2,0.3-0.3,0.7-0.3,1.3c0,0.5,0.1,1,0.3,1.3c0.2,0.3,0.6,0.5,1,0.5s0.7-0.2,1-0.5C115.6,33.6,115.8,33.2,115.8,32.7z"/>
			<path class="st2" d="M118.5,30.1c0.2-0.1,0.6-0.1,0.9-0.2c0.4-0.1,0.8-0.1,1.3-0.1c0.4,0,0.8,0.1,1.1,0.2
				c0.3,0.1,0.5,0.3,0.7,0.5s0.3,0.5,0.4,0.8s0.1,0.6,0.1,1v3.1h-1.3v-2.9c0-0.3,0-0.5-0.1-0.7c0-0.2-0.1-0.4-0.2-0.5
				s-0.2-0.2-0.4-0.3c-0.1-0.1-0.3-0.1-0.5-0.1s-0.3,0-0.5,0s-0.3,0-0.4,0.1v4.4h-1.3v-5.3H118.5z"/>
			<path class="st2" d="M124.6,28.5l1.3-0.2v1.6h1.9v1h-1.9v2.2c0,0.4,0.1,0.7,0.2,0.9s0.4,0.3,0.7,0.3c0.2,0,0.4,0,0.6-0.1
				c0.2,0,0.3-0.1,0.4-0.1l0.2,1c-0.1,0.1-0.3,0.1-0.6,0.2s-0.5,0.1-0.8,0.1c-0.4,0-0.7-0.1-1-0.2c-0.3-0.1-0.5-0.3-0.6-0.5
				c-0.2-0.2-0.3-0.4-0.3-0.7c-0.1-0.3-0.1-0.6-0.1-1C124.6,33,124.6,28.5,124.6,28.5z"/>
			<path class="st2" d="M130.5,28.4c0,0.2-0.1,0.4-0.2,0.6c-0.2,0.1-0.3,0.2-0.5,0.2s-0.4-0.1-0.6-0.2s-0.2-0.3-0.2-0.6
				c0-0.2,0.1-0.4,0.2-0.6c0.2-0.1,0.3-0.2,0.6-0.2c0.2,0,0.4,0.1,0.5,0.2C130.4,27.9,130.5,28.1,130.5,28.4z M130.3,35.4H129V30
				h1.3V35.4z"/>
			<path class="st2" d="M132,30.1c0.2-0.1,0.6-0.1,0.9-0.2s0.8-0.1,1.3-0.1c0.4,0,0.8,0.1,1.1,0.2s0.5,0.3,0.7,0.5s0.3,0.5,0.4,0.8
				c0.1,0.3,0.1,0.6,0.1,1v3.1h-1.3v-2.9c0-0.3,0-0.5-0.1-0.7c0-0.2-0.1-0.4-0.2-0.5c-0.1-0.1-0.2-0.2-0.4-0.3
				c-0.1-0.1-0.3-0.1-0.5-0.1s-0.3,0-0.5,0s-0.3,0-0.4,0.1v4.4h-1.3v-5.3H132z"/>
			<path class="st2" d="M142.7,35.2c-0.2,0.1-0.6,0.1-0.9,0.2c-0.4,0.1-0.8,0.1-1.3,0.1c-0.4,0-0.8-0.1-1.1-0.2
				c-0.3-0.1-0.5-0.3-0.7-0.5s-0.3-0.5-0.4-0.8c-0.1-0.3-0.1-0.6-0.1-1v-3h1.3v2.8c0,0.6,0.1,1,0.3,1.2s0.5,0.4,0.9,0.4
				c0.2,0,0.3,0,0.5,0s0.3,0,0.4-0.1v-4.4h1.3v5.3H142.7z"/>
			<path class="st2" d="M148.8,35.2c-0.2,0.1-0.6,0.1-0.9,0.2c-0.4,0.1-0.8,0.1-1.3,0.1c-0.4,0-0.8-0.1-1.1-0.2
				c-0.3-0.1-0.5-0.3-0.7-0.5s-0.3-0.5-0.4-0.8c-0.1-0.3-0.1-0.6-0.1-1v-3h1.3v2.8c0,0.6,0.1,1,0.3,1.2s0.5,0.4,0.9,0.4
				c0.2,0,0.3,0,0.5,0s0.3,0,0.4-0.1v-4.4h1.3v5.3H148.8z"/>
			<path class="st2" d="M153.6,32.5c0-0.6-0.1-1-0.2-1.2c-0.1-0.3-0.4-0.4-0.8-0.4c-0.1,0-0.3,0-0.5,0s-0.3,0-0.4,0.1v4.4h-1.3v-5.3
				c0.2-0.1,0.6-0.1,1-0.2s0.8-0.1,1.2-0.1s0.7,0,0.9,0.1s0.4,0.2,0.6,0.4c0.1-0.1,0.2-0.1,0.3-0.2s0.2-0.1,0.4-0.2
				c0.1-0.1,0.3-0.1,0.5-0.1s0.3-0.1,0.5-0.1c0.4,0,0.8,0.1,1,0.2c0.3,0.1,0.5,0.3,0.6,0.5c0.2,0.2,0.3,0.5,0.3,0.8
				c0.1,0.3,0.1,0.6,0.1,1v3.1h-1.3v-2.9c0-0.6-0.1-1-0.2-1.2c-0.1-0.3-0.4-0.4-0.8-0.4c-0.2,0-0.4,0-0.6,0.1
				c-0.2,0.1-0.3,0.1-0.4,0.2c0.1,0.2,0.1,0.4,0.1,0.6s0,0.4,0,0.6v3h-1.3v-2.8H153.6z"/>
			<path class="st2" d="M166.5,35.4c-0.1-0.3-0.2-0.6-0.3-0.8c-0.1-0.3-0.2-0.6-0.3-0.9h-3c-0.1,0.3-0.2,0.6-0.3,0.9
				c-0.1,0.3-0.2,0.6-0.3,0.8h-1.4c0.3-0.8,0.5-1.5,0.8-2.1s0.5-1.3,0.7-1.8c0.2-0.6,0.5-1.1,0.7-1.7c0.2-0.5,0.5-1,0.7-1.6h1.2
				c0.2,0.5,0.5,1,0.7,1.6c0.2,0.5,0.5,1.1,0.7,1.7s0.5,1.2,0.7,1.8s0.5,1.4,0.8,2.1H166.5z M164.3,29.6c-0.2,0.4-0.3,0.8-0.5,1.3
				s-0.4,1.1-0.6,1.7h2.4c-0.2-0.6-0.4-1.2-0.6-1.7C164.7,30.4,164.5,29.9,164.3,29.6z"/>
			<path class="st2" d="M168.8,30.1c0.2-0.1,0.6-0.1,0.9-0.2c0.4-0.1,0.8-0.1,1.3-0.1c0.4,0,0.8,0.1,1.1,0.2s0.5,0.3,0.7,0.5
				s0.3,0.5,0.4,0.8s0.1,0.6,0.1,1v3.1H172v-2.9c0-0.3,0-0.5-0.1-0.7c0-0.2-0.1-0.4-0.2-0.5c-0.1-0.1-0.2-0.2-0.4-0.3
				c-0.1-0.1-0.3-0.1-0.5-0.1s-0.3,0-0.5,0s-0.3,0-0.4,0.1v4.4h-1.3v-5.3H168.8z"/>
			<path class="st2" d="M176.8,29.8c0.4,0,0.8,0.1,1,0.2c0.3,0.1,0.5,0.2,0.7,0.4c0.2,0.2,0.3,0.4,0.4,0.7c0.1,0.3,0.1,0.6,0.1,0.9
				v3.3c-0.2,0-0.5,0.1-0.9,0.2c-0.4,0.1-0.8,0.1-1.3,0.1c-0.3,0-0.6,0-0.9-0.1c-0.3-0.1-0.5-0.2-0.7-0.3s-0.3-0.3-0.4-0.5
				c-0.1-0.2-0.2-0.5-0.2-0.8s0.1-0.6,0.2-0.8c0.1-0.2,0.3-0.4,0.5-0.5c0.2-0.1,0.4-0.2,0.7-0.3c0.3-0.1,0.6-0.1,0.9-0.1
				c0.1,0,0.3,0,0.4,0c0.2,0,0.3,0,0.5,0.1V32c0-0.1,0-0.3-0.1-0.4c0-0.1-0.1-0.2-0.2-0.3c-0.1-0.1-0.2-0.2-0.3-0.2
				c-0.1-0.1-0.3-0.1-0.5-0.1c-0.3,0-0.6,0-0.8,0.1c-0.2,0-0.4,0.1-0.6,0.1l-0.2-1c0.2-0.1,0.4-0.1,0.7-0.2S176.5,29.8,176.8,29.8z
				 M176.9,34.5c0.4,0,0.7,0,0.9-0.1V33c-0.1,0-0.2,0-0.3-0.1c-0.1,0-0.3,0-0.4,0c-0.1,0-0.3,0-0.4,0s-0.3,0.1-0.4,0.1
				c-0.1,0.1-0.2,0.1-0.3,0.2c-0.1,0.1-0.1,0.2-0.1,0.4c0,0.3,0.1,0.5,0.3,0.6C176.3,34.4,176.6,34.5,176.9,34.5z"/>
			<path class="st2" d="M182.5,35.5c-0.4,0-0.7,0-0.9-0.1s-0.4-0.2-0.6-0.3c-0.1-0.1-0.2-0.3-0.3-0.5s-0.1-0.5-0.1-0.7v-6.3l1.3-0.2
				v6.2c0,0.2,0,0.3,0,0.4c0,0.1,0.1,0.2,0.1,0.3c0.1,0.1,0.1,0.1,0.3,0.2c0.1,0,0.2,0.1,0.4,0.1L182.5,35.5z"/>
			<path class="st2" d="M188.3,29.9c-0.6,2.1-1.2,3.9-1.9,5.6c-0.1,0.3-0.3,0.6-0.4,0.8c-0.1,0.2-0.3,0.4-0.5,0.6
				c-0.2,0.1-0.4,0.3-0.6,0.3c-0.2,0.1-0.5,0.1-0.8,0.1c-0.2,0-0.4,0-0.6-0.1c-0.2,0-0.3-0.1-0.4-0.1l0.2-1c0.3,0.1,0.5,0.1,0.7,0.1
				c0.3,0,0.6-0.1,0.8-0.2c0.2-0.2,0.3-0.4,0.5-0.7c-0.4-0.8-0.8-1.6-1.1-2.5c-0.4-0.9-0.7-1.9-1-2.9h1.3c0.1,0.3,0.2,0.6,0.3,0.9
				s0.2,0.7,0.3,1c0.1,0.3,0.2,0.7,0.4,1c0.1,0.3,0.3,0.7,0.4,1c0.2-0.6,0.4-1.3,0.6-2c0.2-0.7,0.4-1.4,0.5-2h1.3V29.9z"/>
			<path class="st2" d="M189.3,28.5l1.3-0.2v1.6h1.9v1h-1.9v2.2c0,0.4,0.1,0.7,0.2,0.9s0.4,0.3,0.7,0.3c0.2,0,0.4,0,0.6-0.1
				c0.2,0,0.3-0.1,0.4-0.1l0.2,1c-0.1,0.1-0.3,0.1-0.6,0.2c-0.2,0.1-0.5,0.1-0.8,0.1c-0.4,0-0.7-0.1-1-0.2c-0.3-0.1-0.5-0.3-0.6-0.5
				c-0.2-0.2-0.3-0.4-0.3-0.7c-0.1-0.3-0.1-0.6-0.1-1L189.3,28.5L189.3,28.5z"/>
			<path class="st2" d="M195.2,28.4c0,0.2-0.1,0.4-0.2,0.6c-0.2,0.1-0.3,0.2-0.5,0.2s-0.4-0.1-0.6-0.2c-0.2-0.1-0.2-0.3-0.2-0.6
				c0-0.2,0.1-0.4,0.2-0.6c0.2-0.1,0.3-0.2,0.6-0.2c0.2,0,0.4,0.1,0.5,0.2C195.1,27.9,195.2,28.1,195.2,28.4z M195,35.4h-1.3V30h1.3
				V35.4z"/>
			<path class="st2" d="M196.4,32.7c0-0.4,0.1-0.8,0.2-1.1c0.1-0.3,0.3-0.7,0.5-0.9c0.2-0.3,0.5-0.5,0.8-0.6s0.7-0.2,1.1-0.2
				c0.5,0,1,0.1,1.5,0.3l-0.3,1c-0.1-0.1-0.3-0.1-0.5-0.2c-0.2,0-0.4-0.1-0.6-0.1c-0.5,0-0.9,0.2-1.1,0.5c-0.3,0.3-0.4,0.7-0.4,1.3
				c0,0.5,0.1,1,0.4,1.3c0.2,0.3,0.7,0.5,1.2,0.5c0.2,0,0.4,0,0.6-0.1c0.2,0,0.4-0.1,0.5-0.2l0.2,1c-0.1,0.1-0.3,0.1-0.6,0.2
				c-0.3,0.1-0.6,0.1-0.9,0.1c-0.5,0-0.9-0.1-1.2-0.2c-0.3-0.1-0.6-0.3-0.9-0.6c-0.2-0.3-0.4-0.6-0.5-0.9
				C196.5,33.5,196.4,33.1,196.4,32.7z"/>
			<path class="st2" d="M203.1,34.5c0.3,0,0.6,0,0.7-0.1c0.2-0.1,0.2-0.2,0.2-0.4s-0.1-0.3-0.2-0.4c-0.2-0.1-0.4-0.2-0.8-0.4
				c-0.2-0.1-0.4-0.2-0.6-0.3c-0.2-0.1-0.4-0.2-0.5-0.3c-0.1-0.1-0.2-0.3-0.3-0.5c-0.1-0.2-0.1-0.4-0.1-0.6c0-0.5,0.2-0.9,0.6-1.2
				c0.4-0.3,0.9-0.4,1.5-0.4c0.3,0,0.6,0,0.9,0.1c0.3,0.1,0.5,0.1,0.7,0.2l-0.2,1c-0.1-0.1-0.3-0.1-0.5-0.2s-0.5-0.1-0.7-0.1
				c-0.3,0-0.5,0-0.6,0.1c-0.2,0.1-0.2,0.2-0.2,0.4c0,0.1,0,0.2,0,0.2c0,0.1,0.1,0.1,0.2,0.2c0.1,0.1,0.2,0.1,0.3,0.2
				s0.3,0.1,0.5,0.2c0.3,0.1,0.6,0.2,0.8,0.3s0.4,0.2,0.5,0.4c0.1,0.1,0.2,0.3,0.3,0.5s0.1,0.4,0.1,0.6c0,0.5-0.2,0.9-0.6,1.2
				c-0.4,0.3-0.9,0.4-1.6,0.4c-0.5,0-0.9,0-1.2-0.1s-0.5-0.1-0.6-0.2l0.2-1c0.2,0.1,0.4,0.1,0.7,0.2S202.8,34.5,203.1,34.5z"/>
		</g>
		<g>
			<g>
				<path class="st0" d="M5.9,23.6c-0.6,1.2-1.1,2.4-1.4,3.6c1.3,0.4,2.6,0.6,4,0.7c0-1,0.1-2.1,0.2-3.1C7.7,24.5,6.7,24.1,5.9,23.6
					z"/>
				<path class="st3" d="M8.5,28.1H8.4c-1.3-0.1-2.7-0.4-4-0.7H4.3v-0.1c0.4-1.3,0.9-2.5,1.5-3.7l0.1-0.1v0c0.9,0.5,1.8,0.9,2.7,1.3
					h0.1v0.1c-0.1,1-0.2,2-0.2,3V28.1z M4.6,27.2c1.2,0.3,2.4,0.6,3.7,0.7c0-1,0.1-1.9,0.2-2.8c-0.9-0.4-1.7-0.8-2.6-1.2
					C5.4,24.8,4.9,26,4.6,27.2z"/>
			</g>
			<g>
				<path class="st0" d="M11.2,10.1c-0.7,0-1.5,0.1-2.3,0.2c0.1,0.8,0.2,1.5,0.4,2.3C9.9,11.7,10.5,10.9,11.2,10.1L11.2,10.1z"/>
			</g>
			<g>
				<path class="st0" d="M4.9,28.5c1,1.5,2.3,2.9,3.7,4c-0.2-1.2-0.2-2.3-0.3-3.5C7.2,28.9,6.1,28.7,4.9,28.5z"/>
				<path class="st3" d="M8.8,32.8l-0.2-0.2c-1.4-1.2-2.7-2.5-3.7-4.1l-0.2-0.3L5,28.3c1.1,0.3,2.3,0.5,3.4,0.6h0.1V29
					c0,1.1,0.1,2.3,0.3,3.5V32.8z M5.2,28.6c0.9,1.3,2,2.5,3.2,3.6c-0.1-1.1-0.2-2.1-0.2-3.1C7.2,29,6.2,28.9,5.2,28.6z"/>
			</g>
			<g>
				<path class="st0" d="M14,2c-1.4,0.5-2.7,1.1-3.9,1.9C11,4,11.9,4.2,12.8,4.5C13.1,3.6,13.5,2.8,14,2z"/>
			</g>
			<g>
				<path class="st0" d="M19.7,1c-0.7,0-1.4,0-2,0.1c0.9,0.7,1.8,1.4,2.7,2.2l0.7,0.6l-0.7,0.7c-0.6,0.5-1.1,1.1-1.7,1.8l0,0
					c0,0-0.1,0.1-0.3,0.3c0.4,0,0.8-0.1,1.3-0.1c6.7,0,12.1,5.4,12.1,12.1s-5.4,12.1-12.1,12.1c-2.3,0-4.5-0.7-6.3-1.8
					c-0.9,0.1-1.8,0.2-2.7,0.2c-0.4,0-0.8,0-1.3,0c0,1.4,0.2,2.8,0.4,4.3c2.8,1.9,6.2,3,9.9,3c9.8,0,17.7-7.9,17.7-17.7
					C37.4,8.9,29.5,1,19.7,1z"/>
			</g>
			<g>
				<path class="st0" d="M17.4,5.2c0.4-0.4,0.7-0.8,1.1-1.2c-0.8-0.7-1.7-1.4-2.6-1.9c-0.6,1-1.1,1.9-1.5,3c0.8,0.3,1.6,0.6,2.3,1
					C17.1,5.5,17.3,5.3,17.4,5.2z"/>
			</g>
			<g>
				<path class="st0" d="M7.4,10.5c-1.3,0.2-2.6,0.6-3.8,1c0.5,1.3,1.1,2.5,1.9,3.7c0.8-0.6,1.7-1.1,2.6-1.6
					C7.8,12.6,7.6,11.5,7.4,10.5z"/>
				<path class="st3" d="M5.4,15.4l-0.1-0.1c-0.7-1.2-1.4-2.4-1.9-3.7v-0.1h0.1c1.2-0.5,2.5-0.8,3.8-1h0.1v0.1
					c0.1,1,0.3,2.1,0.6,3.1v0.1H7.9C7,14.3,6.2,14.8,5.4,15.4L5.4,15.4z M3.8,11.6C4.3,12.8,4.9,14,5.5,15c0.8-0.5,1.6-1,2.4-1.5
					c-0.2-0.9-0.4-1.9-0.6-2.9C6.1,10.9,4.9,11.2,3.8,11.6z"/>
			</g>
			<g>
				<path class="st0" d="M5.1,17.2c-1,0.8-1.8,1.6-2.7,2.5c0.9,0.8,1.9,1.5,2.9,2.2c0.5-0.8,1-1.7,1.6-2.4C6.3,18.7,5.7,18,5.1,17.2
					z"/>
				<path class="st3" d="M5.4,22.1L5.3,22c-1-0.7-2-1.4-2.9-2.2l-0.1-0.1l0.1-0.1c0.8-0.9,1.7-1.8,2.7-2.6l0.1,0l0.1,0.1
					c0.6,0.8,1.2,1.6,1.8,2.3l0.1,0.1l-0.1,0.1C6.5,20.4,6,21.2,5.5,22L5.4,22.1z M2.6,19.7c0.9,0.7,1.8,1.4,2.7,2
					c0.4-0.8,0.9-1.5,1.5-2.3c-0.6-0.7-1.2-1.4-1.7-2.1C4.2,18.1,3.4,18.9,2.6,19.7z"/>
			</g>
			<g>
				<path class="st0" d="M9.6,25.3L9.6,25.3c-0.1,0.9-0.2,1.8-0.2,2.7c0.9,0,1.8,0,2.7,0C11.1,27.3,10.3,26.3,9.6,25.3z"/>
				<path class="st3" d="M10.7,28.2c-0.4,0-0.8,0-1.3,0H9.3v-0.1c0-0.9,0.1-1.9,0.2-2.8v-0.2l0.2,0.1l0,0c0.7,1,1.5,1.9,2.4,2.7
					l0.2,0.2H12C11.6,28.2,11.2,28.2,10.7,28.2z M9.5,27.9c0.7,0,1.5,0,2.2,0c-0.8-0.7-1.5-1.4-2.1-2.3C9.6,26.4,9.6,27.2,9.5,27.9z
					"/>
			</g>
			<g>
				<path class="st0" d="M12.2,6C11.1,5.7,10,5.5,8.8,5.3c-0.1,1.2-0.1,2.3,0,3.5c0.9-0.1,1.8-0.2,2.7-0.2C11.7,7.7,11.9,6.9,12.2,6
					z"/>
			</g>
			<g>
				<path class="st0" d="M13.8,6.5c-0.2,0.7-0.4,1.3-0.6,2C14,8,14.8,7.6,15.7,7.3C15.1,7,14.4,6.8,13.8,6.5z"/>
			</g>
			<g>
				<path class="st0" d="M2.2,21.1c0.2,1.7,0.7,3.4,1.4,4.9c0.4-1,0.8-2,1.3-3C3.9,22.4,3,21.8,2.2,21.1z"/>
				<path class="st3" d="M3.6,26.3L3.5,26c-0.7-1.6-1.2-3.2-1.4-4.9v-0.3L2.3,21c0.8,0.7,1.7,1.3,2.6,1.9L5,23H4.9
					c-0.5,1-0.9,2-1.2,3L3.6,26.3z M2.3,21.4c0.2,1.5,0.6,2.9,1.2,4.3c0.4-1,0.7-1.8,1.2-2.7C3.9,22.5,3.1,22,2.3,21.4z"/>
			</g>
			<g>
				<path class="st0" d="M7.3,6.1c-1.1,1-2,2.2-2.7,3.5C5.4,9.4,6.4,9.2,7.3,9C7.2,8,7.2,7.1,7.3,6.1z"/>
			</g>
			<g>
				<path class="st0" d="M6.2,16.4c0.5,0.7,0.9,1.3,1.5,1.9c0-1.1,0.2-2.2,0.6-3.2C7.5,15.4,6.9,15.9,6.2,16.4z"/>
				<path class="st3" d="M7.8,18.5l-0.2-0.2c-0.5-0.6-1-1.2-1.5-1.9L6,16.3l0.1-0.1c0.7-0.5,1.3-0.9,2-1.3l0.3-0.2L8.3,15
					c-0.3,1-0.5,2.1-0.5,3.2L7.8,18.5z M6.4,16.4c0.4,0.5,0.8,1,1.2,1.5c0.1-0.9,0.2-1.8,0.5-2.6C7.5,15.6,6.9,16,6.4,16.4z"/>
			</g>
			<g>
				<path class="st0" d="M6.4,22.5c0.7,0.4,1.5,0.8,2.3,1.1c-0.5-1-0.8-2.1-0.9-3.3C7.3,21.1,6.8,21.8,6.4,22.5z"/>
				<path class="st3" d="M9,23.9l-0.3-0.1c-0.8-0.3-1.6-0.7-2.3-1.1l-0.1-0.1l0.1-0.1c0.4-0.7,0.9-1.5,1.4-2.1l0.1-0.3v0.3
					c0.2,1.1,0.5,2.2,0.9,3.2L9,23.9z M6.6,22.5c0.6,0.3,1.3,0.7,1.9,0.9c-0.4-0.9-0.6-1.8-0.8-2.7C7.3,21.3,6.9,21.9,6.6,22.5z"/>
			</g>
			<g>
				<path class="st0" d="M4.4,16c-0.6-0.9-1.1-1.8-1.5-2.8c-0.5,1.6-0.8,3.2-0.8,4.9C2.8,17.4,3.6,16.7,4.4,16z"/>
				<path class="st3" d="M1.9,18.5v-0.3c0-1.7,0.3-3.4,0.8-5l0.2-0.3L3,13.2c0.4,1,0.9,1.9,1.5,2.8l0.1,0.1l-0.1,0.1
					c-0.8,0.7-1.6,1.4-2.3,2.1L1.9,18.5z M2.9,13.6c-0.4,1.4-0.7,2.8-0.7,4.3c0.7-0.7,1.3-1.3,2.1-1.9C3.7,15.2,3.3,14.4,2.9,13.6z"
					/>
			</g>
		</g>
	</g>
</g>
</svg>
